<svg  viewBox="0 0 400 300" fill="none" xmlns="http://www.w3.org/2000/svg">
<path d="M68 167C68.66 167 69.32 167 70 167C71.079 168.459 72.0876 169.97 73.0625 171.5C85.0663 188.812 105.111 195.126 125 199C124.942 198.059 124.884 197.118 124.824 196.148C124.41 184.709 124.41 184.709 127.375 181.188C131.03 178.142 132.69 177.872 137.363 177.846C139.071 177.833 139.071 177.833 140.813 177.82C142.696 177.814 142.696 177.814 144.616 177.807C145.933 177.799 147.25 177.791 148.608 177.782C152.983 177.756 157.359 177.741 161.734 177.727C163.241 177.721 164.747 177.716 166.253 177.71C172.519 177.689 178.784 177.67 185.05 177.659C194.029 177.643 203.009 177.609 211.988 177.552C218.301 177.514 224.615 177.494 230.928 177.489C234.699 177.485 238.469 177.473 242.24 177.441C245.789 177.411 249.338 177.404 252.887 177.416C254.807 177.416 256.726 177.392 258.645 177.367C268.059 177.435 268.059 177.435 271.758 180.411C275.305 184.507 275.111 186.748 275.062 192.125C275.053 193.406 275.044 194.688 275.035 196.008C275.018 197.489 275.018 197.489 275 199C285.106 196.857 294.643 194.52 304 190C305.4 189.339 305.4 189.339 306.828 188.664C316.849 183.598 324.605 176.891 330 167C330.99 167.33 331.98 167.66 333 168C332.227 180.047 329.176 190.675 323.875 201.5C323.144 203.003 323.144 203.003 322.399 204.536C312.45 224.503 297.258 238.775 276 246C275.986 247.551 275.986 247.551 275.972 249.134C275.932 252.982 275.866 256.831 275.792 260.679C275.764 262.342 275.743 264.006 275.729 265.669C275.707 268.065 275.661 270.46 275.609 272.855C275.608 273.595 275.607 274.335 275.606 275.097C275.506 278.622 275.096 280.839 273.274 283.884C269.366 287.52 265.666 288.25 260.428 288.261C259.319 288.268 258.21 288.275 257.068 288.282C255.257 288.278 255.257 288.278 253.41 288.275C252.132 288.28 250.853 288.285 249.536 288.29C246.036 288.304 242.536 288.304 239.036 288.302C236.111 288.301 233.186 288.305 230.261 288.31C223.359 288.321 216.458 288.322 209.556 288.316C202.442 288.31 195.329 288.322 188.215 288.343C182.101 288.361 175.987 288.367 169.873 288.364C166.225 288.362 162.576 288.364 158.927 288.378C154.858 288.393 150.789 288.384 146.719 288.372C144.912 288.384 144.912 288.384 143.068 288.395C136.324 288.353 131.35 288.062 126.157 283.315C124.471 279.941 124.52 276.647 124.488 272.953C124.47 272.182 124.452 271.411 124.434 270.616C124.38 268.161 124.346 265.706 124.312 263.25C124.279 261.582 124.245 259.914 124.209 258.246C124.124 254.164 124.057 250.082 124 246C123.282 245.76 122.564 245.52 121.824 245.272C99.9386 237.684 85.6469 221.065 75.6875 200.75C70.9846 190.837 66.2047 179.217 67 168C67.33 167.67 67.66 167.34 68 167ZM132 184C129.579 187.632 129.79 189.383 129.875 193.688C129.916 195.771 129.957 197.854 130 200C135.28 200.33 140.56 200.66 146 201C146 199.68 146 198.36 146 197C181.64 197 217.28 197 254 197C254.495 198.98 254.495 198.98 255 201C259.95 200.67 264.9 200.34 270 200C270.062 197.938 270.124 195.875 270.187 193.75C270.222 192.59 270.257 191.43 270.293 190.234C269.973 186.706 269.602 185.371 267 183C263.543 182.101 260.293 181.873 256.732 181.866C255.69 181.862 254.648 181.858 253.575 181.853C251.877 181.854 251.877 181.854 250.145 181.855C248.344 181.85 248.344 181.85 246.507 181.845C243.222 181.837 239.937 181.833 236.651 181.833C234.597 181.832 232.543 181.83 230.489 181.827C223.317 181.818 216.145 181.814 208.974 181.815C202.297 181.815 195.619 181.805 188.942 181.789C183.202 181.776 177.462 181.771 171.721 181.771C168.296 181.771 164.871 181.769 161.446 181.758C157.625 181.748 153.805 181.751 149.985 181.757C148.855 181.751 147.724 181.746 146.56 181.74C139.065 181.714 139.065 181.714 132 184ZM211.273 201.219C209.673 201.241 208.073 201.264 206.474 201.286C202.295 201.345 198.116 201.404 193.937 201.464C189.66 201.524 185.383 201.584 181.105 201.645C172.737 201.762 164.368 201.881 156 202C156.617 202.46 157.235 202.921 157.871 203.395C160.018 205.013 162.08 206.692 164.125 208.438C164.808 209.014 165.491 209.59 166.195 210.184C168.037 212.038 168.898 213.658 170 216C177.754 216.139 185.507 216.246 193.262 216.311C196.863 216.342 200.463 216.385 204.063 216.453C207.539 216.518 211.014 216.554 214.49 216.569C216.46 216.586 218.429 216.633 220.399 216.68C226.399 216.965 226.399 216.965 231.668 214.68C232.93 212.903 232.93 212.903 234 210C237.002 206.975 240.562 204.512 244 202C240.575 201.279 237.307 200.937 233.819 200.955C232.932 200.96 232.046 200.964 231.132 200.969C224.512 201.035 217.893 201.124 211.273 201.219ZM172 221C171.01 224.3 170.02 227.6 169 231C168.047 232.694 167.066 234.375 166 236C166 236.66 166 237.32 166 238C188.44 238 210.88 238 234 238C233.01 235.525 233.01 235.525 232 233C231.474 231.648 230.953 230.294 230.437 228.938C230.189 228.287 229.94 227.636 229.684 226.965C229.005 225.014 228.501 223.004 228 221C209.52 221 191.04 221 172 221ZM151 246C146.239 247.069 141.611 247.034 136.754 247.02C135.49 247.017 134.226 247.014 132.924 247.011C131.959 247.007 130.994 247.004 130 247C129.876 251.323 129.785 255.645 129.725 259.97C129.7 261.44 129.666 262.909 129.623 264.378C129.562 266.496 129.534 268.612 129.512 270.73C129.486 272.003 129.459 273.276 129.432 274.587C130.195 279.175 131.209 280.278 135 283C139.134 283.758 143.229 283.683 147.422 283.647C149.313 283.66 149.313 283.66 151.242 283.674C154.693 283.696 158.142 283.688 161.593 283.672C165.208 283.659 168.822 283.671 172.436 283.679C178.506 283.688 184.575 283.676 190.645 283.652C197.657 283.625 204.669 283.633 211.682 283.661C217.707 283.684 223.733 283.687 229.759 283.674C233.355 283.666 236.952 283.665 240.549 283.681C244.559 283.699 248.568 283.675 252.578 283.647C253.768 283.657 254.958 283.667 256.183 283.678C262.648 283.644 262.648 283.644 268.241 280.673C270.551 277.163 270.574 274.914 270.488 270.73C270.481 270.049 270.474 269.368 270.467 268.667C270.439 266.506 270.376 264.348 270.312 262.188C270.287 260.717 270.265 259.246 270.244 257.775C270.189 254.183 270.103 250.592 270 247C269.055 247.01 268.109 247.02 267.135 247.031C265.887 247.039 264.638 247.047 263.352 247.055C262.117 247.065 260.883 247.075 259.612 247.085C254.605 246.967 248.729 246.715 244.373 243.978C240.946 242.566 237.594 242.713 233.946 242.725C233.137 242.72 232.329 242.715 231.496 242.71C228.824 242.696 226.152 242.697 223.48 242.699C221.62 242.695 219.759 242.691 217.898 242.686C213.997 242.679 210.095 242.679 206.194 242.684C201.204 242.69 196.214 242.673 191.224 242.65C187.38 242.635 183.536 242.634 179.692 242.637C177.853 242.637 176.013 242.632 174.174 242.622C171.597 242.609 169.02 242.616 166.442 242.628C165.688 242.62 164.934 242.612 164.157 242.605C159.045 242.655 155.606 243.788 151 246Z" fill="black"/>
<path d="M175 81C182.867 87.8623 189.719 97.6629 190.875 108.25C190.916 109.487 190.957 110.725 191 112C196.94 112 202.88 112 209 112C209.021 110.804 209.041 109.607 209.062 108.375C210.093 98.9492 215.672 89.8597 222 83C236.273 72.0393 253.656 70.5824 271 72C288.624 74.9152 302.97 84.8953 313.625 98.957C315 101 315 101 315.883 103.211C316.864 105.239 316.864 105.239 319.242 105.582C320.111 105.658 320.98 105.734 321.875 105.812C326.557 106.57 326.557 106.57 328.547 108.5C330.576 111.912 331.674 115.066 331 119C328.435 121.565 326.523 121.54 323 122C323.062 123.052 323.124 124.104 323.188 125.187C323.108 140.3 316.513 153.811 306.004 164.359C294.27 174.674 280.38 175.857 265.487 175.191C249.601 173.971 236.002 166.176 225 155C224.341 154.34 223.683 153.68 223.004 153C214.556 143.989 209 130.478 209 118C203.06 118 197.12 118 191 118C190.629 120.877 190.629 120.877 190.25 123.812C187.751 139.703 180.365 151.676 168 162C152.468 173.006 135.706 176.363 117 175C103.631 172.649 94.0681 165.742 86 155C79.7375 145.026 76.3052 133.811 77 122C75.8656 121.691 74.7312 121.381 73.5625 121.062C70 120 70 120 69 119C69.3595 114.327 69.7263 110.472 73 107C74.5752 106.737 76.1612 106.537 77.75 106.375C81.2424 105.844 82.586 105.491 84.8945 102.754C86.034 100.83 87.1516 98.893 88.25 96.9453C95.7751 84.2803 110.587 76.5383 124.52 72.8437C141.487 69.1461 160.488 71.3009 175 81ZM94.8125 98.1875C86.6328 108.258 82.8971 120.181 83.7661 133.005C85.171 144.986 91.668 154.952 100.938 162.375C113.088 170.851 126.207 171.301 140.531 169.574C152.966 166.85 163.182 159.963 172 151C172.585 150.413 173.17 149.827 173.773 149.223C183.103 139.159 186.707 125.34 186.281 111.844C185.289 101.811 181.016 93.3763 173.5 86.625C150.53 68.5773 113.341 78.4615 94.8125 98.1875ZM222.312 90.75C214.755 101.372 212.569 111.422 214.496 124.32C217.093 136.735 222.091 145.044 231 154C231.519 154.554 232.039 155.109 232.574 155.68C236.455 159.448 241.101 161.803 245.875 164.25C246.535 164.592 247.195 164.934 247.875 165.286C259.398 170.955 273.681 172 286.203 169.312C288.644 168.391 290.765 167.342 293 166C293.773 165.564 294.547 165.129 295.344 164.68C306.55 157.844 312.908 147.626 316 135C317.446 121.328 314.097 110.161 305.875 99.2109C295.627 87.1267 280.626 79.9887 265 78C248.744 76.9007 234.083 78.7063 222.312 90.75Z" fill="black"/>
<path d="M276.25 96.6875C286.164 103.141 293.798 111.891 296.633 123.617C298.084 133.034 296.256 143.631 290.869 151.693C288.405 154.8 285.943 156.99 282.438 158.813C281.694 159.211 280.95 159.609 280.184 160.02C271.971 163.707 260.429 163.224 252 160.375C247.068 158.287 243.086 155.419 239 152C237.732 151.134 237.732 151.134 236.438 150.25C227.222 141.743 222.944 130.879 222.375 118.5C222.632 110.139 224.992 103.081 230.934 97.0313C232.885 95.4795 234.829 94.2204 237 93C238.031 92.3813 239.062 91.7625 240.125 91.125C251.849 86.6754 265.8 90.8981 276.25 96.6875ZM236 109C234.942 112.078 234.653 114.764 235 118C236.606 121.271 237.946 123.227 240.875 125.375C245.366 126.696 248.101 126.484 252.25 124.25C254.917 122.068 255.796 121.105 257 118C257.429 113.008 256.666 109.796 253.438 105.938C246.605 102.086 241.212 102.771 236 109Z" fill="black"/>
<path d="M168 96C170.502 98.4521 172.286 100.956 174 104C174.619 105.011 175.237 106.021 175.875 107.062C179.195 115.771 177.64 126.682 174.383 135.156C168.762 146.715 159.913 155.41 148.008 160.309C138.681 163.52 126.993 163.499 118.047 159.191C109.335 154.121 106.168 146.966 103.539 137.504C101.533 128.186 103.636 119.385 108.687 111.375C116.205 100.986 126.878 92.6301 139.828 90.2227C150.597 89.1187 158.949 89.5112 168 96ZM144 109C142.942 112.078 142.653 114.764 143 118C144.606 121.271 145.946 123.227 148.875 125.375C153.366 126.696 156.101 126.484 160.25 124.25C162.917 122.068 163.796 121.105 165 118C165.429 113.008 164.666 109.796 161.437 105.937C154.605 102.086 149.212 102.771 144 109Z" fill="black"/>
<path d="M290.25 16.75C299.988 24.6919 305.38 33.5389 307 46C307.541 52.8216 306.01 58.4921 304 65C300.234 63.485 298.376 61.2865 295.812 58.1875C280.677 40.8763 259.673 29.7488 238 23C240.396 17.1925 245.646 14.7658 250.996 11.9492C263.564 6.7801 279.327 9.13544 290.25 16.75Z" fill="black"/>
<path d="M155.668 15.7539C157.906 17.4159 160.031 19.0262 162 21C162 21.66 162 22.32 162 23C160.982 23.3171 159.963 23.6342 158.914 23.9609C142.114 29.4112 127.523 37.6594 114 49C113.158 49.7012 112.316 50.4025 111.449 51.125C107.007 54.9477 103.109 58.9841 99.4101 63.5312C98.9448 64.0159 98.4794 64.5006 98 65C97.34 65 96.68 65 96 65C92.2842 52.9681 91.8132 42.9192 97.289 31.2539C103.365 20.5804 111.183 14.4029 122.859 10.3555C134.288 8.45764 145.864 9.30918 155.668 15.7539Z" fill="black"/>
<path d="M149.763 256.877C150.536 256.878 151.31 256.879 152.106 256.88C152.991 256.878 153.876 256.877 154.788 256.876C155.766 256.879 156.744 256.883 157.752 256.886C158.776 256.886 159.801 256.886 160.856 256.886C164.26 256.887 167.663 256.895 171.066 256.902C173.419 256.904 175.772 256.906 178.124 256.907C184.331 256.91 190.537 256.92 196.743 256.931C203.07 256.942 209.397 256.946 215.725 256.951C228.15 256.962 240.575 256.979 253 257C253.382 258.656 253.714 260.325 254 262C253 263 253 263 251.237 263.123C250.464 263.122 249.69 263.121 248.894 263.12C248.009 263.122 247.124 263.123 246.212 263.124C244.745 263.119 244.745 263.119 243.248 263.114C242.224 263.114 241.199 263.114 240.144 263.114C236.74 263.113 233.337 263.105 229.934 263.098C227.581 263.096 225.228 263.094 222.876 263.093C216.669 263.09 210.463 263.08 204.257 263.069C197.93 263.058 191.603 263.054 185.275 263.049C172.85 263.038 160.425 263.021 148 263C147.618 261.344 147.286 259.675 147 258C148 257 148 257 149.763 256.877Z" fill="black"/>
<path d="M198.727 140.687C201.256 141.162 201.256 141.162 204.75 140.25C208 140 208 140 211 142C213 145 213 145 213.25 148.437C211.587 153.178 209.479 155.692 205 158C200.616 159.045 196.887 158.972 192.84 156.887C189.5 154.343 188.155 152.443 186.75 148.437C187 145 187 145 188.875 142C192.736 139.529 194.382 139.879 198.727 140.687Z" fill="black"/>
</svg>
